<?xml version="1.0" encoding="iso-8859-1"?>
<!-- Generator: Adobe Illustrator 20.1.0, SVG Export Plug-In . SVG Version: 6.00 Build 0)  -->
<svg xmlns="http://www.w3.org/2000/svg" xmlns:xlink="http://www.w3.org/1999/xlink" version="1.1" id="&#1057;&#1083;&#1086;&#1081;_1" x="0px" y="0px" viewBox="0 0 64 64" style="enable-background:new 0 0 64 64;" xml:space="preserve">
<linearGradient id="SVGID_1__48197" gradientUnits="userSpaceOnUse" x1="11" y1="51.5" x2="11" y2="56.3362" spreadMethod="reflect">
	<stop offset="0" style="stop-color:#6DC7FF"/>
	<stop offset="1" style="stop-color:#E6ABFF"/>
</linearGradient>
<rect x="10" y="52" style="fill:url(#SVGID_1__48197);" width="2" height="4"/>
<linearGradient id="SVGID_2__48197" gradientUnits="userSpaceOnUse" x1="25" y1="43.3333" x2="25" y2="57.1677" spreadMethod="reflect">
	<stop offset="0" style="stop-color:#6DC7FF"/>
	<stop offset="1" style="stop-color:#E6ABFF"/>
</linearGradient>
<rect x="24" y="44" style="fill:url(#SVGID_2__48197);" width="2" height="12"/>
<linearGradient id="SVGID_3__48197" gradientUnits="userSpaceOnUse" x1="39" y1="34.5" x2="39" y2="57.8815" spreadMethod="reflect">
	<stop offset="0" style="stop-color:#6DC7FF"/>
	<stop offset="1" style="stop-color:#E6ABFF"/>
</linearGradient>
<rect x="38" y="36" style="fill:url(#SVGID_3__48197);" width="2" height="20"/>
<linearGradient id="SVGID_4__48197" gradientUnits="userSpaceOnUse" x1="53" y1="27.3333" x2="53" y2="57.1964" spreadMethod="reflect">
	<stop offset="0" style="stop-color:#6DC7FF"/>
	<stop offset="1" style="stop-color:#E6ABFF"/>
</linearGradient>
<rect x="52" y="28" style="fill:url(#SVGID_4__48197);" width="2" height="28"/>
<linearGradient id="SVGID_5__48197" gradientUnits="userSpaceOnUse" x1="11" y1="4.5" x2="11" y2="59.1872" spreadMethod="reflect">
	<stop offset="0" style="stop-color:#1A6DFF"/>
	<stop offset="1" style="stop-color:#C822FF"/>
</linearGradient>
<path style="fill:url(#SVGID_5__48197);" d="M16,44c0-1.105-0.895-2-2-2H8c-1.105,0-2,0.895-2,2v12c0,1.105,0.895,2,2,2h6  c1.105,0,2-0.895,2-2V44z M8,44h6v2H8V44z M14,56H8v-8h6V56z"/>
<linearGradient id="SVGID_6__48197" gradientUnits="userSpaceOnUse" x1="25" y1="4.5" x2="25" y2="59.1872" spreadMethod="reflect">
	<stop offset="0" style="stop-color:#1A6DFF"/>
	<stop offset="1" style="stop-color:#C822FF"/>
</linearGradient>
<path style="fill:url(#SVGID_6__48197);" d="M28,34h-6c-1.103,0-2,0.899-2,2.001v4v2v14C20,57.104,20.897,58,22,58h6  c1.103,0,2-0.896,2-1.999v-14v-2v-4C30,34.899,29.102,34,28,34z M22,36h6v2h-6V36z M28,56h-6V42.001V40h6v2.001V56z"/>
<linearGradient id="SVGID_7__48197" gradientUnits="userSpaceOnUse" x1="39" y1="4.5" x2="39" y2="59.1872" spreadMethod="reflect">
	<stop offset="0" style="stop-color:#1A6DFF"/>
	<stop offset="1" style="stop-color:#C822FF"/>
</linearGradient>
<path style="fill:url(#SVGID_7__48197);" d="M42,26h-6c-1.103,0-2,0.899-2,2.001v4v2v22C34,57.104,34.897,58,36,58h6  c1.103,0,2-0.896,2-1.999v-22v-2v-4C44,26.899,43.102,26,42,26z M36,28h6v2h-6V28z M42,56h-6V34.001V32h6v2.001V56z"/>
<linearGradient id="SVGID_8__48197" gradientUnits="userSpaceOnUse" x1="53" y1="4.5" x2="53" y2="59.1872" spreadMethod="reflect">
	<stop offset="0" style="stop-color:#1A6DFF"/>
	<stop offset="1" style="stop-color:#C822FF"/>
</linearGradient>
<path style="fill:url(#SVGID_8__48197);" d="M56,18h-6c-1.103,0-2,0.899-2,2.001v4v2v30C48,57.104,48.897,58,50,58h6  c1.103,0,2-0.896,2-1.999v-30v-2v-4C58,18.899,57.102,18,56,18z M50,20h6v2h-6V20z M56,56h-6V26.001V24h6v2.001V56z"/>
<linearGradient id="SVGID_9__48197" gradientUnits="userSpaceOnUse" x1="29.2196" y1="4.5012" x2="29.2196" y2="59.1884" spreadMethod="reflect">
	<stop offset="0" style="stop-color:#1A6DFF"/>
	<stop offset="1" style="stop-color:#C822FF"/>
</linearGradient>
<path style="fill:url(#SVGID_9__48197);" d="M51.182,6.969c-0.384-0.666-1.121-1.044-1.908-0.958l-6.422,0.605  c-0.534,0.051-1,0.365-1.245,0.841c-0.233,0.453-0.224,0.981,0.027,1.413l0.965,1.668L13.666,27.041  c-0.709-0.64-1.638-1.04-2.666-1.04c-2.206,0-4,1.794-4,4s1.794,4,4,4s4-1.794,4-4c0-0.453-0.092-0.882-0.231-1.288l28.832-16.444  l1.158,2.001c0.25,0.433,0.703,0.705,1.212,0.729c0.025,0.001,0.05,0.002,0.075,0.002c0.506,0,0.978-0.242,1.273-0.658l3.737-5.246  C51.517,8.448,51.566,7.633,51.182,6.969z M11,32.001c-1.103,0-2-0.897-2-2s0.897-2,2-2s2,0.897,2,2S12.102,32.001,11,32.001z   M46.104,12.602L43.75,8.533l5.678-0.597L46.104,12.602z"/>
</svg>
